<svg width="14" height="14" viewBox="0 0 14 14" fill="none" xmlns="http://www.w3.org/2000/svg">
<path d="M1.05744 6.25028C1.02988 6.25028 1.02332 6.23672 1.03688 6.21616L1.18038 6.03153C1.19394 6.01097 1.22588 5.99741 1.25344 5.99741H3.68726C3.71482 5.99741 3.72138 6.01797 3.70782 6.03853L3.59144 6.21616C3.58354 6.22737 3.57339 6.23682 3.56164 6.2439C3.54989 6.25098 3.5368 6.25554 3.52319 6.25728L1.05744 6.25028ZM0.0275675 6.87722C4.95045e-06 6.87722 -0.00655755 6.86366 0.00700495 6.8431L0.150505 6.65847C0.164067 6.6401 0.198192 6.62653 0.225755 6.62653H3.33375C3.36132 6.62653 3.37488 6.6471 3.36788 6.66766L3.31319 6.82953C3.30619 6.8571 3.27907 6.87066 3.25151 6.87066L0.0275675 6.87722ZM1.67694 7.50372C1.64938 7.50372 1.64282 7.48316 1.65638 7.46478L1.75219 7.29372C1.76575 7.27316 1.79332 7.2526 1.82044 7.2526H3.18325C3.21082 7.2526 3.22438 7.27316 3.22438 7.30028L3.21082 7.46435C3.21082 7.49191 3.18325 7.51203 3.16313 7.51203L1.67694 7.50372ZM8.75219 6.12735C8.32388 6.23672 8.02988 6.31897 7.60594 6.42835C7.50357 6.45591 7.49876 6.46247 7.40776 6.3601C7.30757 6.24372 7.23232 6.16847 7.08882 6.10022C6.65832 5.89066 6.24357 5.94972 5.85594 6.2026C5.39088 6.5036 5.15419 6.94547 5.16075 7.49672C5.16513 8.0436 5.54138 8.49247 6.07907 8.56772C6.54413 8.62941 6.93132 8.46535 7.23888 8.11885C7.30057 8.0436 7.35526 7.96178 7.42351 7.86597H6.10663C5.96532 7.86597 5.92901 7.77716 5.97669 7.66078C6.08387 7.40901 6.20017 7.16122 6.32538 6.91791C6.34049 6.88526 6.36462 6.85761 6.39493 6.83823C6.42524 6.81885 6.46047 6.80855 6.49644 6.80853H8.97794C8.96438 6.99316 8.96438 7.17778 8.93682 7.36241C8.86558 7.84763 8.67279 8.30695 8.37638 8.69766C7.88638 9.34472 7.24632 9.7481 6.43476 9.85528C5.76713 9.9441 5.14501 9.81416 4.60032 9.40641C4.09676 9.02578 3.80976 8.52003 3.73451 7.89353C3.64788 7.15066 3.86444 6.48303 4.31551 5.89503C4.79851 5.26153 5.439 4.86035 6.22257 4.71685C6.86307 4.60047 7.47819 4.67572 8.02944 5.04935C8.39169 5.28866 8.64938 5.61678 8.82001 6.01097C8.86113 6.07266 8.83401 6.10678 8.75219 6.12735ZM11.0079 9.8986C10.388 9.88285 9.82319 9.70697 9.34457 9.29703C8.9481 8.96243 8.68661 8.49526 8.60869 7.98235C8.48576 7.21235 8.69751 6.53072 9.15994 5.9226C9.65913 5.26853 10.2581 4.92903 11.0696 4.78553C11.7648 4.6626 12.4184 4.73085 13.0134 5.13422C13.5511 5.50128 13.8863 5.99785 13.9729 6.65191C14.0893 7.57241 13.8246 8.32228 13.1889 8.96453C12.74 9.42041 12.1888 9.70741 11.5526 9.83516C11.3702 9.87147 11.1856 9.87585 11.0079 9.8986ZM12.6306 7.14366C12.6236 7.05485 12.6236 6.9866 12.6101 6.91791C12.4871 6.24328 11.8672 5.8631 11.2201 6.01097C10.5866 6.15447 10.1767 6.55785 10.0262 7.19835C9.90544 7.72947 10.1631 8.26935 10.6553 8.48591C11.0289 8.64997 11.4052 8.62941 11.7648 8.44478C12.3047 8.16435 12.5965 7.72947 12.6306 7.14366Z" fill="black"/>
</svg>
