<svg width="14" height="14" fill="none" xmlns="http://www.w3.org/2000/svg"><g clip-path="url(#a)"><path d="M6.763.519a5.27 5.27 0 0 0-1.034.117l-.262.088c-.526.175-.964.438-1.227.788l-.175.263L2.75 4.053l.018.004c-.523.637-.547 1.539-.018 2.362.198.257.446.485.726.682l-1.69.545-1.752 3.067s4.644 3.505 8.237 2.628l.262-.087c.583-.171 1.017-.49 1.278-.883l.037.006L11.6 9.223c.35-.613.263-1.314-.175-2.015a3.94 3.94 0 0 0-.772-.727l1.736-.588 1.577-2.628S10.152.458 6.763.519Z" fill="#000"/></g><defs><clipPath id="a"><path fill="#fff" d="M0 0h14v14H0z"/></clipPath></defs></svg>
